<?xml version="1.0" encoding="UTF-8"?>
<svg width="80px" height="80px" viewBox="0 0 80 80" version="1.1" xmlns="http://www.w3.org/2000/svg" xmlns:xlink="http://www.w3.org/1999/xlink">
    <!-- Generator: Sketch 45 (43475) - http://www.bohemiancoding.com/sketch -->
    <title>Artboard 3</title>
    <desc>Created with Sketch.</desc>
    <defs>
        <path d="M1,5.62188593 C0.660625362,5.53452439 0.327059537,5.4326882 -4.8316906e-12,5.31707483 L8.07793567e-28,0 L1,0 L1,5.62188593 L1,5.62188593 Z" id="path-1"></path>
        <path d="M1,4.91176672 C0.674250504,5.06129034 0.340654465,5.19665575 1.42108547e-14,5.31707483 L0,0 L1,0 L1,4.91176672 L1,4.91176672 Z" id="path-3"></path>
    </defs>
    <g id="V3" stroke="none" stroke-width="1" fill="none" fill-rule="evenodd">
        <g id="Artboard-3">
            <g id="Page-1" transform="translate(12.000000, 8.000000)">
                <path d="M28,60 L28,4" id="Stroke-1" stroke="#020210" stroke-width="2" stroke-linecap="round" stroke-linejoin="round"></path>
                <polygon id="Stroke-2" stroke="#020210" stroke-width="2" stroke-linecap="round" stroke-linejoin="round" points="52 18 28 4 4 18 4 46 28 60 52 46"></polygon>
                <path d="M4,46 L28,32" id="Stroke-3" stroke="#020210" stroke-width="2" stroke-linecap="round" stroke-linejoin="round"></path>
                <path d="M28,32 L4,18" id="Stroke-4" stroke="#020210" stroke-width="2" stroke-linecap="round" stroke-linejoin="round"></path>
                <path d="M28,32 L52,18" id="Stroke-5" stroke="#020210" stroke-width="2" stroke-linecap="round" stroke-linejoin="round"></path>
                <path d="M28,32 L52,46" id="Stroke-6" stroke="#020210" stroke-width="2" stroke-linecap="round" stroke-linejoin="round"></path>
                <g id="Group-21">
                    <path d="M56,18 C56,20.209 54.209,22 52,22 C49.791,22 48,20.209 48,18 C48,15.791 49.791,14 52,14 C54.209,14 56,15.791 56,18" id="Fill-7" fill="#00BCCF"></path>
                    <path d="M56,46 C56,48.209 54.209,50 52,50 C49.791,50 48,48.209 48,46 C48,43.791 49.791,42 52,42 C54.209,42 56,43.791 56,46" id="Fill-9" fill="#FB9E00"></path>
                    <path d="M8,18 C8,20.209 6.209,22 4,22 C1.791,22 0,20.209 0,18 C0,15.791 1.791,14 4,14 C6.209,14 8,15.791 8,18" id="Fill-11" fill="#725DB1"></path>
                    <path d="M8,46 C8,48.209 6.209,50 4,50 C1.791,50 0,48.209 0,46 C0,43.791 1.791,42 4,42 C6.209,42 8,43.791 8,46" id="Fill-13" fill="#00BCCF"></path>
                    <path d="M32,60 C32,62.209 30.209,64 28,64 C25.791,64 24,62.209 24,60 C24,57.791 25.791,56 28,56 C30.209,56 32,57.791 32,60" id="Fill-15" fill="#725DB1"></path>
                    <path d="M32,4 C32,6.209 30.209,8 28,8 C25.791,8 24,6.209 24,4 C24,1.791 25.791,0 28,0 C30.209,0 32,1.791 32,4" id="Fill-17" fill="#FB9E00"></path>
                    <path d="M40,32 C40,38.627 34.627,44 28,44 C21.373,44 16,38.627 16,32 C16,25.373 21.373,20 28,20 C34.627,20 40,25.373 40,32" id="Fill-19" fill="#FFFFFF"></path>
                </g>
                <g id="Group-34" transform="translate(24.000000, 38.000000)">
                    <g id="Group-27">
                        <mask id="mask-2" fill="white">
                            <use xlink:href="#path-1"></use>
                        </mask>
                        <g id="Clip-26"></g>
                    </g>
                    <g id="Group-30" transform="translate(8.000000, 0.000000)">
                        <mask id="mask-4" fill="white">
                            <use xlink:href="#path-3"></use>
                        </mask>
                        <g id="Clip-29"></g>
                    </g>
                </g>
                <g id="Group-53" stroke="#020210" stroke-width="2" stroke-linecap="round" stroke-linejoin="round">
                    <path d="M40,32 C40,38.627 34.627,44 28,44 C21.373,44 16,38.627 16,32 C16,25.373 21.373,20 28,20 C34.627,20 40,25.373 40,32 Z" id="Stroke-37"></path>
                    <path d="M33.8401902,32 C33.8401902,35.2252451 31.2252451,37.8401902 28,37.8401902 C24.7747549,37.8401902 22.1598098,35.2252451 22.1598098,32 C22.1598098,28.7747549 24.7747549,26.1598098 28,26.1598098 C31.2252451,26.1598098 33.8401902,28.7747549 33.8401902,32 Z" id="Stroke-37" stroke-dasharray="2,4" transform="translate(28.000000, 32.000000) rotate(-345.000000) translate(-28.000000, -32.000000) "></path>
                    <path d="M56,18 C56,20.209 54.209,22 52,22 C49.791,22 48,20.209 48,18 C48,15.791 49.791,14 52,14 C54.209,14 56,15.791 56,18 Z" id="Stroke-39"></path>
                    <path d="M56,46 C56,48.209 54.209,50 52,50 C49.791,50 48,48.209 48,46 C48,43.791 49.791,42 52,42 C54.209,42 56,43.791 56,46 Z" id="Stroke-41"></path>
                    <path d="M8,18 C8,20.209 6.209,22 4,22 C1.791,22 0,20.209 0,18 C0,15.791 1.791,14 4,14 C6.209,14 8,15.791 8,18 Z" id="Stroke-43"></path>
                    <path d="M8,46 C8,48.209 6.209,50 4,50 C1.791,50 0,48.209 0,46 C0,43.791 1.791,42 4,42 C6.209,42 8,43.791 8,46 Z" id="Stroke-45"></path>
                    <path d="M32,60 C32,62.209 30.209,64 28,64 C25.791,64 24,62.209 24,60 C24,57.791 25.791,56 28,56 C30.209,56 32,57.791 32,60 Z" id="Stroke-47"></path>
                    <path d="M32,4 C32,6.209 30.209,8 28,8 C25.791,8 24,6.209 24,4 C24,1.791 25.791,0 28,0 C30.209,0 32,1.791 32,4 Z" id="Stroke-49"></path>
                </g>
            </g>
        </g>
    </g>
</svg>