<svg id="Layer_1" data-name="Layer 1" xmlns="http://www.w3.org/2000/svg" xmlns:xlink="http://www.w3.org/1999/xlink" viewBox="0 0 612 792"><defs><style>.cls-1,.cls-13{fill:none;}.cls-2{fill:#eae8f0;}.cls-14,.cls-3{fill:#eb644b;}.cls-4{fill:#b7d0ed;}.cls-5{fill:#e5f4f9;}.cls-6{fill:#d1ebf2;}.cls-7{fill:#f2784b;}.cls-8{clip-path:url(#clip-path);}.cls-9{fill:#e64c3c;opacity:0.22;}.cls-10{opacity:0.5;}.cls-11{fill:#fee1c5;}.cls-12,.cls-19{fill:#fff;}.cls-13{stroke:#fff;stroke-linecap:round;stroke-miterlimit:10;stroke-width:12px;}.cls-14{opacity:0.6;}.cls-15{fill:#928f91;}.cls-16{fill:#956fb0;}.cls-17{fill:#d2d2d3;}.cls-18{fill:#eff0f2;}.cls-19{opacity:0.2;}.cls-20{opacity:0.44;font-size:27.74px;font-family:Arciform, Arciform Sans;}.cls-21{letter-spacing:0.01em;}</style><clipPath id="clip-path"><polyline class="cls-1" points="413.44 263.37 403.48 510.15 239.72 510.15 230.52 263.37"/></clipPath></defs><title>Artboard 2</title><ellipse class="cls-2" cx="350.83" cy="611.18" rx="168.76" ry="36.96"/><circle class="cls-1" cx="317.74" cy="363.27" r="290.67"/><path class="cls-3" d="M392.72,500.78l13.63,10c6.69,4.91,19,15.45,16.9,25.77-1,4.78-2.58,15-2.58,15l.38.72s.59-1.72,3.7-9.56c8.44-21.28,6.59-28.33-.69-40.79-19.75-33.81-20-33.89-20-33.89Z"/><circle class="cls-4" cx="321.98" cy="290.2" r="196.85"/><circle class="cls-5" cx="321.37" cy="290.2" r="189.4"/><circle class="cls-6" cx="321.19" cy="293.73" r="155.18"/><g id="Body"><path class="cls-7" d="M232,365S244.3,570.59,244.51,573.3s1.05,5.14-7.25,8.62c-9.64,4-38.68,11.45-38.68,11.45s22.56-.18,43.91-.18c19.49,0,19.8-15.78,20.12-20.61s6-66.19,6-66.19,1.61,77.22,1.61,80.82-1.17,9.65-14.49,12.29c-9.08,1.8-36,7.49-36,7.49s30.41.8,42.48.8c25.35,0,25.35-16.58,25.35-16.58l5.63-80.91s1.62,81.05,1.61,90.49c0,6.89-5.8,11.83-24.95,16.95-12.15,3.25-29.57,7.34-29.57,7.34s34.42.46,46.88,0c23.63-.95,26.56-18.24,26.56-18.24L353.78,403Z"/><path class="cls-7" d="M411.72,365S399.36,570.59,399.14,573.3s-1.06,5.14,7.27,8.62c9.65,4,38.75,11.45,38.75,11.45s-22.6-.18-44-.18c-19.52,0-19.84-15.78-20.16-20.61s-6-61.19-6-61.19-1.61,72.22-1.61,75.82,1.17,9.65,14.51,12.29C397,601.3,424,607,424,607s-30.47.8-42.55.8c-25.39,0-25.4-16.58-25.4-16.58l-5.64-80.91s-1.62,81.05-1.61,90.49c0,6.89,5.81,11.83,25,16.95,12.17,3.25,29.63,7.34,29.63,7.34s-34.48.46-47,0c-23.67-.95-26.61-18.24-26.61-18.24L289.69,403Z"/><path class="cls-7" d="M413.45,265.11a91.68,91.68,0,1,1-91.68-91.68A91.68,91.68,0,0,1,413.45,265.11Z"/><g class="cls-8"><circle class="cls-7" cx="322.75" cy="313.17" r="161.94"/></g><path class="cls-9" d="M410.7,364.64s10.82-95.54-4.45-132.45c-26.63-64.38-90.56-58.36-90.56-58.36s37.09,14.25,38.67,68.11c1.12,38,.26,94.48.26,94.48Z"/></g><g id="Face"><g class="cls-10"><circle class="cls-11" cx="284.15" cy="217.33" r="12.65"/></g><path d="M355,401.7c0,31.75-15,51.62-33.55,51.62s-33.55-22.81-33.55-54.55c0,0,15.16,28.49,33.69,28.49S355,401.7,355,401.7Z"/><path class="cls-12" d="M355,400.56c0,19.47-15,31.65-33.55,31.65s-33.55-14-33.55-33.45c0,0,15.16,17.47,33.69,17.47S355,400.56,355,400.56Z"/><circle class="cls-3" cx="385.8" cy="317.92" r="55.48"/><circle class="cls-3" cx="257.11" cy="317.53" r="55.48"/><circle class="cls-12" cx="385.42" cy="318.18" r="43.6"/><circle class="cls-12" cx="256.83" cy="317.85" r="43.94"/><circle cx="256.32" cy="310.2" r="13.47"/><circle cx="386.68" cy="310.2" r="13.47"/></g><rect class="cls-4" x="112.93" y="248.23" width="17.3" height="91" rx="7" ry="7"/><rect class="cls-4" x="510.93" y="248.23" width="17.3" height="91" rx="7" ry="7"/><circle class="cls-12" cx="260.75" cy="144.89" r="8.64"/><path class="cls-13" d="M194.88,384.77a153.55,153.55,0,0,1,45.35-226"/><path class="cls-14" d="M404.19,488.82s1.47-20.31,1-20.15c-24.33,7.68-53,18.48-85.12,18.22-35.45-.29-59.9-11.14-81.54-18.64l1.19,20.13s25.26,18.25,81.68,18.56C374,507.21,404.19,488.82,404.19,488.82Z"/><rect class="cls-15" x="161.03" y="580.98" width="23.71" height="19.14" rx="0.72" ry="0.72"/><path class="cls-16" d="M202.63,588.51l-31.64.06-27.86-.06a29.75,29.75,0,0,1,29.75-29.75C189.31,558.76,203.11,572.09,202.63,588.51Z"/><path class="cls-17" d="M121.18,596.27H224.59a6,6,0,0,1,6,6v53.66a0,0,0,0,1,0,0H121.18a6,6,0,0,1-6-6V602.27A6,6,0,0,1,121.18,596.27Z"/><path class="cls-18" d="M121.18,596.27h88.57a6,6,0,0,1,6,6v53.66a0,0,0,0,1,0,0H115.18a0,0,0,0,1,0,0V602.27A6,6,0,0,1,121.18,596.27Z"/><circle class="cls-19" cx="165.22" cy="571.08" r="4.19"/><text class="cls-20" transform="translate(136.41 633.81)"><tspan class="cls-21">arg</tspan><tspan x="39.31" y="0">o</tspan></text><path class="cls-3" d="M240.65,509.59l-23.79,4.91c-11.68,2.41-29,7.46-32.12,19.5-1.64,6.3,3.31,9.43,6.74,9.43,10.6,0,7.11-14.26,7.11-14.26h1c3.06,3.5,13.26,15.75,1.75,23.1-5.83,3.73-25.33,4.48-28.45-17.6-2.2-15.59,8.31-28.56,22.4-37.94,42.74-28.47,43.07-28.47,43.07-28.47Z"/></svg>