<?xml version="1.0" encoding="UTF-8"?>
<svg width="580px" height="580px" viewBox="0 0 580 580" version="1.1" xmlns="http://www.w3.org/2000/svg" xmlns:xlink="http://www.w3.org/1999/xlink">
    <!-- Generator: Sketch 45 (43475) - http://www.bohemiancoding.com/sketch -->
    <title>Artboard</title>
    <desc>Created with Sketch.</desc>
    <defs></defs>
    <g id="Page-1" stroke="none" stroke-width="1" fill="none" fill-rule="evenodd">
        <g id="Artboard" fill-rule="nonzero" fill="#000000">
            <path d="M258.146023,40 L246.459629,114.013829 C228.686566,118.396237 211.725068,124.969829 196.467832,134.140397 L135.438885,90.641041 L91.2902851,134.789641 L134.140397,195.818588 C124.888678,211.156975 117.828144,227.956171 113.364585,245.810385 L40,258.146023 L40,320.473458 L113.364585,333.45834 C117.828144,351.312553 124.888678,368.11175 134.140397,383.450137 L90.641041,444.479084 L134.789641,488.627684 L195.818588,445.777572 C211.075824,454.94814 228.037322,461.521752 245.810385,465.90414 L258.146023,539.917969 L320.473458,539.917969 L334.107584,465.90414 C351.799497,461.440581 368.274051,454.380067 383.450137,445.128328 L445.128328,488.627684 L489.276928,444.479084 L445.128328,383.450137 C454.217746,368.274051 461.521752,351.718326 465.90414,334.107584 L539.917969,320.473458 L539.917969,258.146023 L465.90414,245.810385 C461.521752,228.199643 454.217746,211.643918 445.128328,196.467832 L488.627684,134.789641 L444.479084,90.641041 L383.450137,134.789641 C368.274051,125.619073 351.231403,118.477388 333.45834,114.013829 L320.473458,40 L258.146023,40 Z M289.958984,154.266964 C364.865529,154.266964 425.651004,215.052439 425.651004,289.958984 C425.651004,364.865529 364.865529,425.651004 289.958984,425.651004 C215.052439,425.651004 154.266964,364.784379 154.266964,289.958984 C154.266964,215.13361 215.052439,154.266964 289.958984,154.266964 Z M289.958984,187.378414 C233.474746,187.378414 187.378414,233.474746 187.378414,289.958984 C187.378414,346.443222 233.474746,392.539555 289.958984,392.539555 C346.443222,392.539555 392.539555,346.443222 392.539555,289.958984 C392.539555,233.474746 346.443222,187.378414 289.958984,187.378414 Z M289.30974,247.108873 C313.088301,247.108873 332.809096,266.099274 332.809096,289.958984 C332.809096,313.737545 313.088301,332.809096 289.30974,332.809096 C265.53118,332.809096 246.459629,313.737545 246.459629,289.958984 C246.459629,266.099274 265.53118,247.108873 289.30974,247.108873 Z" id="Shape"></path>
        </g>
    </g>
</svg>