<?xml version="1.0" encoding="UTF-8"?>
<svg width="80px" height="80px" viewBox="0 0 80 80" version="1.1" xmlns="http://www.w3.org/2000/svg" xmlns:xlink="http://www.w3.org/1999/xlink">
    <!-- Generator: Sketch 45 (43475) - http://www.bohemiancoding.com/sketch -->
    <title>Artboard 3</title>
    <desc>Created with Sketch.</desc>
    <defs>
        <rect id="path-1" x="18" y="5" width="10.2231445" height="34"></rect>
        <rect id="path-2" x="18" y="5" width="10.2231445" height="12.4585568"></rect>
        <rect id="path-3" x="18" y="26" width="10.2231445" height="12.4585568"></rect>
    </defs>
    <g id="V3" stroke="none" stroke-width="1" fill="none" fill-rule="evenodd">
        <g id="Artboard-3">
            <g id="Group-10" transform="translate(8.000000, 8.000000)">
                <g id="Page-1" stroke-width="2" stroke-linecap="round" stroke-linejoin="round">
                    <polygon id="Stroke-6" stroke="#000000" points="0 48 36 48 36 0 0 0"></polygon>
                    <path d="M58,12 L58,4" id="Stroke-8" stroke="#000000"></path>
                    <path d="M58,4 L42,4" id="Stroke-9" stroke="#000000"></path>
                    <path d="M56,10 L58,12" id="Stroke-10" stroke="#000000"></path>
                    <path d="M58,12 L60,10" id="Stroke-11" stroke="#000000"></path>
                    <path d="M8,52 L8,60" id="Stroke-12" stroke="#000000"></path>
                    <path d="M8,60 L24,60" id="Stroke-13" stroke="#000000"></path>
                    <path d="M10,54 L8,52" id="Stroke-14" stroke="#000000"></path>
                    <path d="M8,52 L6,54" id="Stroke-15" stroke="#000000"></path>
                    <g id="Group-6" transform="translate(31.000000, 22.000000)" stroke="#0D0E15" stroke-dasharray="0,4">
                        <path d="M27,36.0138862 L27,0" id="Stroke-20"></path>
                        <path d="M27,36.0138862 L0.999996292,36.0138862" id="Stroke-20"></path>
                    </g>
                    <g id="Group-6" transform="translate(19.000000, 23.000000) scale(-1, -1) translate(-19.000000, -23.000000) translate(5.000000, 4.000000)" stroke="#0D0E15" stroke-dasharray="0,4">
                        <path d="M27,36.0138862 L27,0" id="Stroke-20"></path>
                        <path d="M27,36.0138862 L0.999996292,36.0138862" id="Stroke-20"></path>
                    </g>
                    <g id="Group-40" transform="translate(28.000000, 16.000000)" stroke="#000000">
                        <polygon id="Stroke-36" points="36 0 0 0 0 48 36 48"></polygon>
                    </g>
                </g>
                <g id="Group-9" transform="translate(9.000000, 10.000000)">
                    <g id="Rectangle-9">
                        <use fill="#FB9E00" fill-rule="evenodd" xlink:href="#path-1"></use>
                        <rect stroke="#000000" stroke-width="2" x="19" y="6" width="8.22314453" height="32"></rect>
                    </g>
                    <g id="Rectangle-9">
                        <use fill="#00BCCF" fill-rule="evenodd" xlink:href="#path-2"></use>
                        <rect stroke="#000000" stroke-width="2" x="19" y="6" width="8.22314453" height="10.4585568"></rect>
                    </g>
                    <g id="Rectangle-9">
                        <use fill="#725DB1" fill-rule="evenodd" xlink:href="#path-3"></use>
                        <rect stroke="#000000" stroke-width="2" x="19" y="27" width="8.22314453" height="10.4585568"></rect>
                    </g>
                    <path d="M31.53125,39.5625 L41.84375,39.5625 C42.177085,39.5833334 42.4999984,39.5416672 42.8125,39.4375 L43.4375,39.15625 C43.3958331,39.1354166 43.3541669,39.0937503 43.3125,39.03125 C43.2708331,38.9687497 43.213542,38.8229178 43.140625,38.59375 C43.067708,38.3645822 43.0520831,38.1041681 43.09375,37.8125 C43.1354169,37.4999984 43.2031245,37.2343761 43.296875,37.015625 C43.3906255,36.7968739 43.4791663,36.6562503 43.5625,36.59375 L43.65625,36.5 C44.0729187,36.7708347 44.3854156,37.0937481 44.59375,37.46875 C44.7395841,37.6562509 44.8125,37.8958319 44.8125,38.1875 C44.8541669,38.1875 44.9062497,38.1822917 44.96875,38.171875 C45.0312503,38.1614583 45.1614573,38.1458334 45.359375,38.125 C45.5572927,38.1041666 45.7395825,38.1145831 45.90625,38.15625 C46.0729175,38.1770834 46.2343742,38.2135414 46.390625,38.265625 C46.5468758,38.3177086 46.6562497,38.3749997 46.71875,38.4375 L46.8125,38.5 C46.5208319,39.0208359 46.1979184,39.3749991 45.84375,39.5625 C45.6770825,39.6458337 45.4843761,39.7083331 45.265625,39.75 C45.0468739,39.7916669 44.8645841,39.8125 44.71875,39.8125 L44.5,39.8125 C44.4374997,39.9583341 44.3489589,40.1458322 44.234375,40.375 C44.1197911,40.6041678 43.8437522,41.0052055 43.40625,41.578125 C42.9687478,42.1510445 42.4791694,42.6562478 41.9375,43.09375 C41.3958306,43.5312522 40.6562547,43.916665 39.71875,44.25 C38.7812453,44.583335 37.7708388,44.7291669 36.6875,44.6875 C35.6041612,44.6458331 34.6875038,44.4375019 33.9375,44.0625 C33.1874962,43.6874981 32.6614598,43.2552108 32.359375,42.765625 C32.0572902,42.2760392 31.8333341,41.7864608 31.6875,41.296875 C31.5416659,40.8072892 31.4791666,40.395835 31.5,40.0625 L31.53125,39.5625 Z M34.59375,42.5 C34.8229178,42.5 35.0104159,42.4270841 35.15625,42.28125 C35.3020841,42.1354159 35.375,41.9479178 35.375,41.71875 C35.375,41.4895822 35.3020841,41.2968758 35.15625,41.140625 C35.0104159,40.9843742 34.8229178,40.90625 34.59375,40.90625 C34.3645822,40.90625 34.1718758,40.9843742 34.015625,41.140625 C33.8593742,41.2968758 33.78125,41.4895822 33.78125,41.71875 C33.78125,41.9479178 33.8593742,42.1354159 34.015625,42.28125 C34.1718758,42.4270841 34.3645822,42.5 34.59375,42.5 Z M32.40625,37.5625 L33.9375,37.5625 L33.9375,39.125 L32.40625,39.125 L32.40625,37.5625 Z M34.3125,37.5625 L35.875,37.5625 L35.875,39.125 L34.3125,39.125 L34.3125,37.5625 Z M36.21875,37.5625 L37.78125,37.5625 L37.78125,39.125 L36.21875,39.125 L36.21875,37.5625 Z M38.125,37.5625 L39.6875,37.5625 L39.6875,39.125 L38.125,39.125 L38.125,37.5625 Z M40.0625,37.5625 L41.59375,37.5625 L41.59375,39.125 L40.0625,39.125 L40.0625,37.5625 Z M34.3125,35.625 L35.875,35.625 L35.875,37.1875 L34.3125,37.1875 L34.3125,35.625 Z M36.21875,35.625 L37.78125,35.625 L37.78125,37.1875 L36.21875,37.1875 L36.21875,35.625 Z M38.125,35.625 L39.6875,35.625 L39.6875,37.1875 L38.125,37.1875 L38.125,35.625 Z M38.125,33.65625 L39.6875,33.65625 L39.6875,35.21875 L38.125,35.21875 L38.125,33.65625 Z" id="?" fill="#000000" opacity="0.961560236"></path>
                    <path d="M0.53125,6.5625 L10.84375,6.5625 C11.177085,6.58333344 11.4999984,6.54166719 11.8125,6.4375 L12.4375,6.15625 C12.3958331,6.13541656 12.3541669,6.09375031 12.3125,6.03125 C12.2708331,5.96874969 12.213542,5.82291781 12.140625,5.59375 C12.067708,5.36458219 12.0520831,5.10416812 12.09375,4.8125 C12.1354169,4.49999844 12.2031245,4.23437609 12.296875,4.015625 C12.3906255,3.79687391 12.4791663,3.65625031 12.5625,3.59375 L12.65625,3.5 C13.0729187,3.77083469 13.3854156,4.09374812 13.59375,4.46875 C13.7395841,4.65625094 13.8125,4.89583188 13.8125,5.1875 C13.8541669,5.1875 13.9062497,5.18229172 13.96875,5.171875 C14.0312503,5.16145828 14.1614573,5.14583344 14.359375,5.125 C14.5572927,5.10416656 14.7395825,5.11458313 14.90625,5.15625 C15.0729175,5.17708344 15.2343742,5.21354141 15.390625,5.265625 C15.5468758,5.31770859 15.6562497,5.37499969 15.71875,5.4375 L15.8125,5.5 C15.5208319,6.02083594 15.1979184,6.37499906 14.84375,6.5625 C14.6770825,6.64583375 14.4843761,6.70833313 14.265625,6.75 C14.0468739,6.79166687 13.8645841,6.8125 13.71875,6.8125 L13.5,6.8125 C13.4374997,6.95833406 13.3489589,7.14583219 13.234375,7.375 C13.1197911,7.60416781 12.8437522,8.00520547 12.40625,8.578125 C11.9687478,9.15104453 11.4791694,9.65624781 10.9375,10.09375 C10.3958306,10.5312522 9.65625469,10.916665 8.71875,11.25 C7.78124531,11.583335 6.77083875,11.7291669 5.6875,11.6875 C4.60416125,11.6458331 3.68750375,11.4375019 2.9375,11.0625 C2.18749625,10.6874981 1.66145984,10.2552108 1.359375,9.765625 C1.05729016,9.27603922 0.833334062,8.78646078 0.6875,8.296875 C0.541665938,7.80728922 0.479166563,7.395835 0.5,7.0625 L0.53125,6.5625 Z M3.59375,9.5 C3.82291781,9.5 4.01041594,9.42708406 4.15625,9.28125 C4.30208406,9.13541594 4.375,8.94791781 4.375,8.71875 C4.375,8.48958219 4.30208406,8.29687578 4.15625,8.140625 C4.01041594,7.98437422 3.82291781,7.90625 3.59375,7.90625 C3.36458219,7.90625 3.17187578,7.98437422 3.015625,8.140625 C2.85937422,8.29687578 2.78125,8.48958219 2.78125,8.71875 C2.78125,8.94791781 2.85937422,9.13541594 3.015625,9.28125 C3.17187578,9.42708406 3.36458219,9.5 3.59375,9.5 Z M1.40625,4.5625 L2.9375,4.5625 L2.9375,6.125 L1.40625,6.125 L1.40625,4.5625 Z M3.3125,4.5625 L4.875,4.5625 L4.875,6.125 L3.3125,6.125 L3.3125,4.5625 Z M5.21875,4.5625 L6.78125,4.5625 L6.78125,6.125 L5.21875,6.125 L5.21875,4.5625 Z M7.125,4.5625 L8.6875,4.5625 L8.6875,6.125 L7.125,6.125 L7.125,4.5625 Z M9.0625,4.5625 L10.59375,4.5625 L10.59375,6.125 L9.0625,6.125 L9.0625,4.5625 Z M3.3125,2.625 L4.875,2.625 L4.875,4.1875 L3.3125,4.1875 L3.3125,2.625 Z M5.21875,2.625 L6.78125,2.625 L6.78125,4.1875 L5.21875,4.1875 L5.21875,2.625 Z M7.125,2.625 L8.6875,2.625 L8.6875,4.1875 L7.125,4.1875 L7.125,2.625 Z M7.125,0.65625 L8.6875,0.65625 L8.6875,2.21875 L7.125,2.21875 L7.125,0.65625 Z" id="?" fill="#000000" opacity="0.961560236"></path>
                </g>
            </g>
        </g>
    </g>
</svg>