<svg xmlns="http://www.w3.org/2000/svg" xmlns:xlink="http://www.w3.org/1999/xlink" viewBox="0 0 415.3 531.18"><defs><style>.cls-1,.cls-12{fill:none;}.cls-13,.cls-2{fill:#eb644b;}.cls-3{fill:#b7d0ed;}.cls-4{fill:#e5f4f9;}.cls-5{fill:#d1ebf2;}.cls-6{fill:#f2784b;}.cls-7{clip-path:url(#clip-path);}.cls-8{fill:#e64c3c;opacity:0.22;}.cls-9{opacity:0.5;}.cls-10{fill:#fee1c5;}.cls-11{fill:#fff;}.cls-12{stroke:#fff;stroke-linecap:round;stroke-miterlimit:10;stroke-width:12px;}.cls-13{opacity:0.25;}</style><clipPath id="clip-path"><polyline class="cls-1" points="300.51 170.02 290.54 416.8 126.79 416.8 117.58 170.02"/></clipPath></defs><title>Asset 2</title><g id="Layer_2" data-name="Layer 2"><g id="Layer_1-2" data-name="Layer 1"><path class="cls-2" d="M124.5,374.68s-4.11,11.06-8.49,16.56c-3.26,4.11-7.07,4.67-12.06,6-12.65,3.33-26.68,6-26.68,6l28.08,3.7a81.83,81.83,0,0,0,8.9.91c10,.49,12.14-5.07,12.14-5.07Z"/><path class="cls-2" d="M292.44,374.68s4.29,11.06,8.86,16.56c3.41,4.11,7.38,4.67,12.58,6,13.19,3.33,27.84,6,27.84,6l-29.29,3.7a89,89,0,0,1-9.29.91c-10.39.49-12.67-5.07-12.67-5.07Z"/><circle class="cls-3" cx="209.05" cy="196.85" r="196.85"/><circle class="cls-4" cx="208.43" cy="196.85" r="189.4"/><circle class="cls-5" cx="208.26" cy="200.38" r="155.18"/><g id="Body"><path class="cls-6" d="M118,270.89s12.35,205.61,12.56,208.32,1.05,5.14-7.25,8.62c-9.64,4-38.68,11.45-38.68,11.45s22.56-.18,43.91-.18c19.49,0,19.8-15.78,20.12-20.61s6-81.19,6-81.19,1.61,92.22,1.61,95.82-1.17,9.65-14.49,12.29c-9.08,1.8-36,7.49-36,7.49s30.41.8,42.48.8c25.35,0,25.35-16.58,25.35-16.58l5.63-80.91s1.62,81.05,1.61,90.49c0,6.89-5.8,11.83-24.95,16.95-12.15,3.25-29.57,7.34-29.57,7.34s34.42.46,46.88,0c23.63-.95,26.56-18.24,26.56-18.24l40.06-203.82Z"/><path class="cls-6" d="M298.79,270.89S286.42,476.5,286.21,479.21s-1.06,5.14,7.27,8.62c9.65,4,38.75,11.45,38.75,11.45s-22.6-.18-44-.18c-19.52,0-19.84-15.78-20.16-20.61s-6-81.19-6-81.19-1.61,92.22-1.61,95.82,1.17,9.65,14.51,12.29c9.09,1.8,36.1,7.49,36.1,7.49s-30.47.8-42.55.8c-25.39,0-25.4-16.58-25.4-16.58l-5.64-80.91s-1.62,81.05-1.61,90.49c0,6.89,5.81,11.83,25,16.95C273,526.9,290.45,531,290.45,531s-34.48.46-47,0c-23.67-.95-26.61-18.24-26.61-18.24L176.75,308.89Z"/><path class="cls-6" d="M300.51,171.76a91.68,91.68,0,1,1-91.68-91.68A91.68,91.68,0,0,1,300.51,171.76Z"/><g class="cls-7"><circle class="cls-6" cx="209.81" cy="219.82" r="161.94"/></g><path class="cls-8" d="M297.76,271.29s10.82-95.54-4.45-132.45c-26.63-64.38-90.56-58.36-90.56-58.36s37.09,14.25,38.67,68.11c1.12,38,.26,94.48.26,94.48Z"/></g><g id="Face"><g class="cls-9"><circle class="cls-10" cx="171.22" cy="123.98" r="12.65"/></g><path d="M242.07,308.35c0,31.75-15,51.62-33.55,51.62S175,337.16,175,305.42c0,0,15.16,28.49,33.69,28.49S242.07,308.35,242.07,308.35Z"/><path class="cls-11" d="M242.07,307.21c0,19.47-15,31.65-33.55,31.65S175,324.88,175,305.42c0,0,15.16,17.47,33.69,17.47S242.07,307.21,242.07,307.21Z"/><circle class="cls-2" cx="272.86" cy="224.57" r="55.48"/><circle class="cls-2" cx="144.18" cy="224.18" r="55.48"/><circle class="cls-11" cx="272.48" cy="224.83" r="43.6"/><circle class="cls-11" cx="143.89" cy="224.5" r="43.94"/><circle cx="143.39" cy="216.85" r="13.47"/><circle cx="273.74" cy="216.85" r="13.47"/></g><rect class="cls-3" y="154.88" width="17.3" height="91" rx="7" ry="7"/><rect class="cls-3" x="398" y="154.88" width="17.3" height="91" rx="7" ry="7"/><circle class="cls-11" cx="147.82" cy="51.54" r="8.64"/><path class="cls-12" d="M81.95,291.42a153.55,153.55,0,0,1,45.35-226"/><path class="cls-13" d="M292.37,380.26s.72-14,.2-13.68C268,381.4,240,395.93,207.69,395.76c-35.69-.19-59.93-16.5-83.93-29.45l1.57,14.51s26.7,29,83.5,29C261.81,409.77,292.37,380.26,292.37,380.26Z"/></g></g></svg>